<svg viewBox="0 0 512 512" xml:space="preserve" xmlns="http://www.w3.org/2000/svg"><path d="M232.618 256.174h42.281c2.752 9.019 11.082 15.464 20.996 15.464 12.113 0 21.967-9.855 21.967-21.968 0-2.161-.322-4.26-.908-6.256a21.712 21.712 0 0 0-4.377-8.068c3.363-3.902 5.285-8.934 5.285-14.322 0-12.113-9.854-21.968-21.967-21.968-10.033 0-18.518 6.762-21.135 15.968h-42.005c-2.617-9.206-11.102-15.968-21.134-15.968-12.113 0-21.968 9.854-21.968 21.968 0 5.389 1.923 10.42 5.287 14.322a21.712 21.712 0 0 0-4.377 8.068 22.144 22.144 0 0 0-.91 6.256c0 12.112 9.855 21.968 21.968 21.968 9.914 0 18.244-6.446 20.997-15.464zm-11.04-6.187a9.916 9.916 0 0 1-9.957 9.65c-5.496 0-9.968-4.472-9.968-9.968a9.91 9.91 0 0 1 2.209-6.256 10.001 10.001 0 0 1 3.357-2.688 6 6 0 0 0 0-10.76 9.917 9.917 0 0 1-5.566-8.943c0-5.496 4.472-9.968 9.968-9.968 5.495 0 9.967 4.472 9.967 9.968a6 6 0 0 0 6 6h52.34a6 6 0 0 0 6-6c0-5.496 4.471-9.968 9.967-9.968s9.967 4.472 9.967 9.968a9.918 9.918 0 0 1-5.564 8.943 5.999 5.999 0 0 0 0 10.76 9.989 9.989 0 0 1 3.357 2.688 9.92 9.92 0 0 1 2.207 6.256c0 5.496-4.471 9.968-9.967 9.968a9.917 9.917 0 0 1-9.957-9.651 6.001 6.001 0 0 0-5.998-5.813h-52.365a6 6 0 0 0-5.997 5.814z" fill="#ff7518" class="fill-000000"></path><path d="m458.432 454.611-13.668-76.481h-49.096V260.565l22.807 21.77 35.471-33.858L253.754 57.389 53.569 248.492l35.473 33.858 22.806-21.769v175.593h216.715l-3.295 18.437h133.164zm-23.713-64.481 9.379 52.481H339.602l1.15-6.437 1.072-6 1.072-6 3.77-21.1 1.072-6 1.072-6 .168-.945h85.741zM111.847 243.993l-22.806 21.77-18.093-17.271L253.754 73.979l182.812 174.498-18.092 17.27-22.807-21.77-.59-.563-141.311-134.885-141.312 134.885-.607.579zm90.967 180.182h-78.967v-21.1h78.967v21.1zm0-33.1h-78.967V249.128l5.986-5.714 123.933-118.296 123.933 118.296 5.969 5.697V378.13h-44.734l-2.313 12.945h-31.92v-55.494c0-28.091-22.854-50.943-50.943-50.943-28.09 0-50.944 22.853-50.944 50.943v55.494zm89.887 33.014h-77.887v-88.508c0-21.474 17.47-38.943 38.944-38.943 21.473 0 38.943 17.47 38.943 38.943v88.508zm12 .086v-21.1h29.775l-3.77 21.1h-26.005z" fill="#ff7518" class="fill-000000"></path></svg>