<svg width="34" height="33" viewBox="0 0 34 33" fill="none" xmlns="http://www.w3.org/2000/svg">
<ellipse cx="17" cy="16.5" rx="17" ry="16.5" fill="#8EB1E5" fill-opacity="0.2"/>
<path d="M25.1611 7H21.0485C19.5688 8.27658 18.7392 8.99231 17.2595 10.2689L22.4819 10.2689L18.6485 13.5761C17.3812 12.8972 15.886 12.5051 14.2845 12.5051C9.70912 12.5051 6 15.7051 6 19.6526C6 23.6 9.70912 26.8 14.2845 26.8C18.86 26.8 22.5691 23.6 22.5691 19.6526C22.5691 18.2709 22.1146 16.9809 21.3277 15.8875L25.1611 12.5803V17.0859C26.6407 15.8093 27.4703 15.0936 28.95 13.817V10.2689V7H25.1611ZM14.2845 23.6676C11.7143 23.6676 9.63072 21.87 9.63072 19.6526C9.63072 17.4351 11.7143 15.6375 14.2845 15.6375C16.8548 15.6375 18.9384 17.4351 18.9384 19.6526C18.9384 21.87 16.8548 23.6676 14.2845 23.6676Z" fill="#8EB1E6"/>
</svg>
