<svg xmlns="http://www.w3.org/2000/svg" version="1.1" xmlns:xlink="http://www.w3.org/1999/xlink" xmlns:svgjs="http://svgjs.dev/svgjs" width="2000" height="353" viewBox="0 0 2000 353"><g transform="matrix(1,0,0,1,-1.2121212121212466,-1.0091413236669098)"><svg viewBox="0 0 396 70" data-background-color="#ffffff" preserveAspectRatio="xMidYMid meet" height="353" width="2000" xmlns="http://www.w3.org/2000/svg" xmlns:xlink="http://www.w3.org/1999/xlink"><g id="tight-bounds" transform="matrix(1,0,0,1,0.2400000000000091,0.2001130103588764)"><svg viewBox="0 0 395.52 69.59977397928226" height="69.59977397928226" width="395.52"><g><svg viewBox="0 0 498.103714902057 87.65146130517803" height="69.59977397928226" width="395.52"><g><svg viewBox="0 0 395.52 87.65146130517803" height="87.65146130517803" width="395.52"><g id="textblocktransform"><svg viewBox="0 0 395.52 87.65146130517803" height="87.65146130517803" width="395.52" id="textblock"><g><svg viewBox="0 0 395.52 87.65146130517803" height="87.65146130517803" width="395.52"><g transform="matrix(1,0,0,1,0,0)"><svg width="395.52" viewBox="4.13 -37.5 215.92 48.17" height="87.65146130517803" data-palette-color="#ff7518"><g class="wordmark-text-0" data-fill-palette-color="primary" id="text-0"><path d="M17.19-13.92L8.81-13.92 8.81 0 4.13 0 4.13-35.55 17.24-35.55Q23.07-35.55 26.38-32.57 29.69-29.59 29.69-24.68L29.69-24.68Q29.69-19.51 26.45-16.71 23.22-13.92 17.19-13.92L17.19-13.92ZM8.81-31.69L8.81-17.75 17.24-17.75Q21-17.75 23-19.52 25-21.29 25-24.63L25-24.63Q25-27.81 23-29.71 21-31.62 17.5-31.69L17.5-31.69 8.81-31.69ZM45.92 0.49L45.92 0.49Q40.55 0.49 37.18-3.04 33.81-6.57 33.81-12.48L33.81-12.48 33.81-13.31Q33.81-17.24 35.31-20.32 36.81-23.41 39.51-25.16 42.21-26.9 45.36-26.9L45.36-26.9Q50.51-26.9 53.37-23.51 56.22-20.12 56.22-13.79L56.22-13.79 56.22-11.91 38.33-11.91Q38.43-8.01 40.61-5.6 42.8-3.2 46.16-3.2L46.16-3.2Q48.56-3.2 50.22-4.17 51.88-5.15 53.12-6.76L53.12-6.76 55.88-4.61Q52.56 0.49 45.92 0.49ZM45.36-23.19L45.36-23.19Q42.62-23.19 40.77-21.2 38.91-19.21 38.47-15.63L38.47-15.63 51.71-15.63 51.71-15.97Q51.51-19.41 49.85-21.3 48.19-23.19 45.36-23.19ZM63.06-32.81L67.57-32.81 67.57-26.42 72.5-26.42 72.5-22.92 67.57-22.92 67.57-6.54Q67.57-4.96 68.23-4.16 68.89-3.37 70.48-3.37L70.48-3.37Q71.26-3.37 72.63-3.66L72.63-3.66 72.63 0Q70.84 0.49 69.16 0.49L69.16 0.49Q66.13 0.49 64.59-1.34 63.06-3.17 63.06-6.54L63.06-6.54 63.06-22.92 58.25-22.92 58.25-26.42 63.06-26.42 63.06-32.81Z" fill="#ff7518" data-fill-palette-color="primary"></path><path d="M110.79-13.31L110.79-12.92Q110.79-6.86 108-3.19 105.22 0.49 100.53 0.49L100.53 0.49Q95.53 0.49 92.79-3.05L92.79-3.05 92.57 0 88.42 0 88.42-37.5 92.94-37.5 92.94-23.51Q95.67-26.9 100.48-26.9 105.29-26.9 108.04-23.27 110.79-19.63 110.79-13.31L110.79-13.31ZM106.27-13.43L106.27-13.43Q106.27-18.04 104.49-20.56 102.71-23.07 99.36-23.07L99.36-23.07Q94.89-23.07 92.94-18.92L92.94-18.92 92.94-7.5Q95.02-3.34 99.41-3.34L99.41-3.34Q102.66-3.34 104.46-5.86 106.27-8.37 106.27-13.43ZM132.88 0L132.78-2.61Q130.14 0.49 125.04 0.49L125.04 0.49Q120.82 0.49 118.61-1.97 116.4-4.42 116.38-9.23L116.38-9.23 116.38-26.42 120.89-26.42 120.89-9.35Q120.89-3.34 125.77-3.34L125.77-3.34Q130.95-3.34 132.66-7.2L132.66-7.2 132.66-26.42 137.18-26.42 137.18 0 132.88 0ZM142.94-13.09L142.94-13.43Q142.94-19.51 145.82-23.21 148.7-26.9 153.36-26.9L153.36-26.9Q158-26.9 160.71-23.73L160.71-23.73 160.71-37.5 165.23-37.5 165.23 0 161.07 0 160.85-2.83Q158.14 0.49 153.31 0.49L153.31 0.49Q148.72 0.49 145.83-3.27 142.94-7.03 142.94-13.09L142.94-13.09ZM147.45-12.92L147.45-12.92Q147.45-8.42 149.31-5.88 151.16-3.34 154.43-3.34L154.43-3.34Q158.73-3.34 160.71-7.2L160.71-7.2 160.71-19.34Q158.68-23.07 154.48-23.07L154.48-23.07Q151.16-23.07 149.31-20.51 147.45-17.94 147.45-12.92ZM171.13-13.09L171.13-13.43Q171.13-19.51 174.01-23.21 176.89-26.9 181.56-26.9L181.56-26.9Q186.19-26.9 188.9-23.73L188.9-23.73 188.9-37.5 193.42-37.5 193.42 0 189.27 0 189.05-2.83Q186.34 0.49 181.51 0.49L181.51 0.49Q176.92 0.49 174.02-3.27 171.13-7.03 171.13-13.09L171.13-13.09ZM175.65-12.92L175.65-12.92Q175.65-8.42 177.5-5.88 179.36-3.34 182.63-3.34L182.63-3.34Q186.93-3.34 188.9-7.2L188.9-7.2 188.9-19.34Q186.88-23.07 182.68-23.07L182.68-23.07Q179.36-23.07 177.5-20.51 175.65-17.94 175.65-12.92ZM202.48-26.42L209.07-6.62 215.22-26.42 220.05-26.42 209.43 4.08Q206.97 10.67 201.6 10.67L201.6 10.67 200.74 10.6 199.06 10.28 199.06 6.62 200.28 6.71Q202.57 6.71 203.86 5.79 205.14 4.86 205.97 2.39L205.97 2.39 206.97-0.29 197.54-26.42 202.48-26.42Z" fill="#000000" data-fill-palette-color="secondary"></path></g></svg></g></svg></g></svg></g></svg></g><g transform="matrix(1,0,0,1,416.2124063790812,6.274091600224644)"><svg viewBox="0 0 81.89130852297582 75.10327810472874" height="75.10327810472874" width="81.89130852297582"><g><svg xmlns="http://www.w3.org/2000/svg" xmlns:xlink="http://www.w3.org/1999/xlink" version="1.1" x="0" y="0" viewBox="5 8.732 89.998 82.538" enable-background="new 0 0 100 100" xml:space="preserve" height="75.10327810472874" width="81.89130852297582" class="icon-icon-0" data-fill-palette-color="accent" id="icon-0"><path fill-rule="evenodd" clip-rule="evenodd" d="M29.986 91.226C29.623 91.201 29.259 91.181 28.896 91.148 26.862 90.957 24.997 90.294 23.341 89.095 20.484 87.026 18.657 84.275 17.929 80.813A14.7 14.7 0 0 1 17.664 76.874C17.758 75.319 18.068 73.811 18.562 72.336 19.351 69.982 20.541 67.846 22.047 65.877A27 27 0 0 1 25.883 61.83C27.208 60.688 28.411 59.427 29.538 58.092 30.956 56.409 32.239 54.625 33.506 52.829 34.626 51.241 35.727 49.643 36.916 48.108 37.81 46.95 38.753 45.835 39.804 44.816 41.119 43.543 42.57 42.465 44.28 41.766A11.1 11.1 0 0 1 48.283 40.934 17.7 17.7 0 0 1 52.925 41.426C55.259 41.999 57.281 43.134 59.022 44.786 60.213 45.921 61.221 47.205 62.158 48.549 63.152 49.974 64.065 51.451 65.007 52.911 66.069 54.555 67.165 56.173 68.39 57.703A33 33 0 0 0 72.426 61.922C74.204 63.479 75.782 65.212 77.126 67.158 78.272 68.827 79.206 70.602 79.858 72.52 80.366 74.014 80.685 75.542 80.766 77.121 80.891 79.519 80.477 81.812 79.389 83.969 78.382 85.968 76.924 87.573 75.093 88.848 73.747 89.785 72.295 90.497 70.696 90.893 70.13 91.035 69.555 91.137 68.974 91.193 68.893 91.201 68.815 91.216 68.737 91.228 68.661 91.271 68.577 91.239 68.497 91.249 68.431 91.258 68.361 91.228 68.298 91.27H66.808C66.749 91.227 66.682 91.257 66.619 91.249H66.305C65.034 91.208 63.8 90.943 62.57 90.658 60.486 90.172 58.443 89.533 56.37 89.005 54.691 88.579 52.998 88.233 51.275 88.036 50.081 87.899 48.884 87.884 47.69 87.925 46.735 87.957 45.787 88.104 44.848 88.279 42.994 88.628 41.177 89.127 39.359 89.623 37.436 90.151 35.513 90.676 33.544 90.998 32.743 91.127 31.941 91.238 31.127 91.23 30.96 91.228 30.794 91.253 30.625 91.249 30.41 91.237 30.198 91.275 29.986 91.226" fill="#ff7518" data-fill-palette-color="accent"></path><path fill-rule="evenodd" clip-rule="evenodd" d="M66.723 8.768C69.403 9.09 71.45 10.452 73.014 12.6 74.086 14.073 74.76 15.725 75.178 17.491 75.535 19.012 75.67 20.556 75.619 22.118A20.2 20.2 0 0 1 73.605 30.3C72.742 32.092 71.628 33.708 70.208 35.102 68.943 36.341 67.512 37.331 65.842 37.948 64.669 38.381 63.463 38.595 62.213 38.521 60.049 38.396 58.212 37.536 56.668 36.034 55.352 34.752 54.455 33.202 53.834 31.486A16 16 0 0 1 52.988 27.784 18 18 0 0 1 52.879 25.181 20.3 20.3 0 0 1 53.977 19.2C54.684 17.138 55.686 15.237 57.054 13.537 58.205 12.107 59.55 10.898 61.164 10.005A10.1 10.1 0 0 1 64.965 8.77C65.006 8.747 65.051 8.757 65.093 8.754H65.221C65.283 8.746 65.349 8.776 65.404 8.732H66.282C66.339 8.777 66.403 8.747 66.465 8.754H66.594C66.635 8.755 66.681 8.744 66.723 8.768" fill="#ff7518" data-fill-palette-color="accent"></path><path fill-rule="evenodd" clip-rule="evenodd" d="M5.081 40.413A11.4 11.4 0 0 1 5.485 38.002C5.901 36.467 6.582 35.068 7.643 33.87 8.829 32.533 10.295 31.668 12.051 31.319 13.477 31.037 14.884 31.158 16.267 31.584 17.857 32.075 19.263 32.91 20.513 33.997 22.455 35.68 23.847 37.751 24.811 40.121A16.5 16.5 0 0 1 25.857 43.972C25.951 44.615 25.996 45.262 26.009 45.912A13.6 13.6 0 0 1 25.602 49.554C25.194 51.147 24.507 52.597 23.412 53.838 22.155 55.262 20.588 56.148 18.71 56.453 17.332 56.677 15.977 56.526 14.651 56.098 12.868 55.519 11.34 54.525 9.994 53.238 8.681 51.986 7.638 50.532 6.825 48.915A16.7 16.7 0 0 1 5.213 43.898C5.167 43.587 5.129 43.276 5.087 42.966 5.054 42.824 5.067 42.679 5.033 42.538 5.017 42.479 5.026 42.423 5.023 42.362 5.012 42.287 5.046 42.207 5 42.132V40.992C5.071 40.888 5.036 40.772 5.044 40.661 5.05 40.578 5.029 40.49 5.081 40.413" fill="#ff7518" data-fill-palette-color="accent"></path><path fill-rule="evenodd" clip-rule="evenodd" d="M23.897 22.127C23.906 19.864 24.228 17.823 24.985 15.859 25.556 14.374 26.34 13.016 27.432 11.847 28.608 10.585 30.005 9.68 31.69 9.254 33.375 8.826 35.031 8.948 36.659 9.537 38.093 10.057 39.344 10.877 40.455 11.912 42.229 13.562 43.499 15.554 44.404 17.787 44.979 19.207 45.375 20.675 45.601 22.188 45.729 23.046 45.803 23.911 45.821 24.782A18 18 0 0 1 45.59 28.052C45.214 30.313 44.447 32.419 43.079 34.281 42.228 35.436 41.195 36.391 39.927 37.079A8.05 8.05 0 0 1 35.388 38.044C33.937 37.933 32.599 37.459 31.351 36.719 29.723 35.755 28.405 34.455 27.308 32.925 26.007 31.108 25.113 29.099 24.547 26.94A20 20 0 0 1 23.949 23.34C23.913 22.883 23.882 22.423 23.897 22.127" fill="#ff7518" data-fill-palette-color="accent"></path><path fill-rule="evenodd" clip-rule="evenodd" d="M94.998 41.739V42.002C94.898 44.184 94.314 46.238 93.371 48.197A16.5 16.5 0 0 1 90.51 52.371C89.006 53.965 87.261 55.208 85.186 55.954 83.943 56.401 82.663 56.621 81.34 56.548 79.387 56.438 77.682 55.73 76.248 54.398 75.064 53.297 74.283 51.943 73.791 50.419A12.3 12.3 0 0 1 73.214 46.211C73.311 43.058 74.308 40.192 76.035 37.569A15.5 15.5 0 0 1 78.037 35.111C79.58 33.574 81.344 32.392 83.433 31.722 84.621 31.344 85.835 31.171 87.079 31.268 88.979 31.415 90.636 32.134 92.026 33.445 93.28 34.628 94.071 36.089 94.549 37.729 94.813 38.635 94.967 39.562 94.998 40.507V40.772C94.988 41.094 94.989 41.416 94.998 41.739" fill="#ff7518" data-fill-palette-color="accent"></path></svg></g></svg></g></svg></g><defs></defs></svg><rect width="395.52" height="69.59977397928226" fill="none" stroke="none" visibility="hidden"></rect></g></svg></g></svg>