<svg width="34" height="33" viewBox="0 0 34 33" fill="none" xmlns="http://www.w3.org/2000/svg">
<ellipse cx="17" cy="16.5" rx="17" ry="16.5" fill="#8EB1E5" fill-opacity="0.2"/>
<path d="M18.0898 19.7852H15.1016C15.1094 19.082 15.1641 18.4766 15.2656 17.9688C15.375 17.4531 15.5586 16.9883 15.8164 16.5742C16.082 16.1602 16.4336 15.75 16.8711 15.3438C17.2383 15.0156 17.5586 14.7031 17.832 14.4062C18.1055 14.1094 18.3203 13.8047 18.4766 13.4922C18.6328 13.1719 18.7109 12.8164 18.7109 12.4258C18.7109 11.9727 18.6406 11.5977 18.5 11.3008C18.3672 10.9961 18.1641 10.7656 17.8906 10.6094C17.625 10.4531 17.2891 10.375 16.8828 10.375C16.5469 10.375 16.2344 10.4492 15.9453 10.5977C15.6562 10.7383 15.418 10.957 15.2305 11.2539C15.0508 11.5508 14.957 11.9414 14.9492 12.4258H11.5508C11.5742 11.3555 11.8203 10.4727 12.2891 9.77734C12.7656 9.07422 13.4023 8.55469 14.1992 8.21875C14.9961 7.875 15.8906 7.70312 16.8828 7.70312C17.9766 7.70312 18.9141 7.88281 19.6953 8.24219C20.4766 8.59375 21.0742 9.11328 21.4883 9.80078C21.9023 10.4805 22.1094 11.3086 22.1094 12.2852C22.1094 12.9648 21.9766 13.5703 21.7109 14.1016C21.4453 14.625 21.0977 15.1133 20.668 15.5664C20.2383 16.0195 19.7656 16.4883 19.25 16.9727C18.8047 17.3711 18.5 17.7891 18.3359 18.2266C18.1797 18.6641 18.0977 19.1836 18.0898 19.7852ZM14.75 23.4062C14.75 22.9062 14.9219 22.4922 15.2656 22.1641C15.6094 21.8281 16.0703 21.6602 16.6484 21.6602C17.2188 21.6602 17.6758 21.8281 18.0195 22.1641C18.3711 22.4922 18.5469 22.9062 18.5469 23.4062C18.5469 23.8906 18.3711 24.3008 18.0195 24.6367C17.6758 24.9727 17.2188 25.1406 16.6484 25.1406C16.0703 25.1406 15.6094 24.9727 15.2656 24.6367C14.9219 24.3008 14.75 23.8906 14.75 23.4062Z" fill="#50C8EF"/>
</svg>
