<svg width="40" height="74" viewBox="0 0 40 74" fill="none" xmlns="http://www.w3.org/2000/svg">
<path d="M22.8809 52.9805H13.7988C13.8314 49.8555 14.1081 47.3001 14.6289 45.3145C15.1823 43.2962 16.0775 41.457 17.3145 39.7969C18.5514 38.1367 20.1953 36.2487 22.2461 34.1328C23.7435 32.6029 25.1107 31.1706 26.3477 29.8359C27.6172 28.4688 28.6426 27.0039 29.4238 25.4414C30.2051 23.8464 30.5957 21.9421 30.5957 19.7285C30.5957 17.4824 30.1888 15.5456 29.375 13.918C28.5938 12.2904 27.4219 11.0371 25.8594 10.1582C24.3294 9.2793 22.4251 8.83984 20.1465 8.83984C18.2585 8.83984 16.4681 9.18164 14.7754 9.86523C13.0827 10.5488 11.7155 11.6068 10.6738 13.0391C9.63216 14.4388 9.09505 16.278 9.0625 18.5566H0.0292969C0.094401 14.8783 1.00586 11.7207 2.76367 9.08398C4.55404 6.44727 6.96289 4.42904 9.99023 3.0293C13.0176 1.62956 16.403 0.929688 20.1465 0.929688C24.2806 0.929688 27.7962 1.67839 30.6934 3.17578C33.623 4.67318 35.8529 6.82161 37.3828 9.62109C38.9128 12.388 39.6777 15.6758 39.6777 19.4844C39.6777 22.4141 39.0755 25.1159 37.8711 27.5898C36.6992 30.0312 35.1855 32.3262 33.3301 34.4746C31.4746 36.623 29.5052 38.6738 27.4219 40.627C25.6315 42.2871 24.4271 44.1589 23.8086 46.2422C23.1901 48.3255 22.8809 50.5716 22.8809 52.9805ZM13.4082 68.459C13.4082 66.9941 13.8639 65.7572 14.7754 64.748C15.6868 63.7389 17.0052 63.2344 18.7305 63.2344C20.4883 63.2344 21.8229 63.7389 22.7344 64.748C23.6458 65.7572 24.1016 66.9941 24.1016 68.459C24.1016 69.8587 23.6458 71.0632 22.7344 72.0723C21.8229 73.0814 20.4883 73.5859 18.7305 73.5859C17.0052 73.5859 15.6868 73.0814 14.7754 72.0723C13.8639 71.0632 13.4082 69.8587 13.4082 68.459Z" fill="#50C8EF"/>
</svg>
