<svg width="928" height="943" viewBox="0 0 928 943" fill="none" xmlns="http://www.w3.org/2000/svg">
<g opacity="0.95">
<path opacity="0.8" d="M675.985 135.11C733.185 158.31 783.185 203.81 832.785 259.51C882.485 315.21 931.785 381.21 926.885 444.41C921.985 507.51 862.885 567.91 837.285 665.31C811.685 762.71 819.685 897.21 767.485 932.41C715.185 967.61 602.685 903.41 517.985 855.21C433.385 807.01 376.485 774.71 311.085 747.21C245.785 719.61 171.785 696.61 118.685 647.41C65.6853 598.21 33.3853 522.71 14.7853 436.51C-3.81473 350.21 -8.81473 253.21 23.2853 167.81C55.4853 82.31 124.885 8.41002 208.885 0.710023C292.885 -7.08998 391.485 51.31 472.985 81.01C554.485 110.81 618.885 111.81 675.985 135.11Z" fill="#FF7518"/>
</g>
</svg>
